<svg xmlns="http://www.w3.org/2000/svg" width="101.746" height="101.76" viewBox="0 0 101.746 101.76">
  <g id="Correcto_2Regular" transform="translate(-49.1 -49)">
    <path id="Path_385" data-name="Path 385" d="M99.958,150.76c-16.165,0-28.735-4.219-37.361-12.541C53.638,129.593,49.1,116.7,49.1,99.9S53.638,70.2,62.6,61.555C71.224,53.233,83.808,49,99.958,49s28.735,4.219,37.375,12.541c8.974,8.641,13.512,21.544,13.512,38.347s-4.552,29.692-13.512,38.332c-8.641,8.322-21.21,12.541-37.375,12.541Zm0-96.121c-30.01,0-45.233,15.223-45.233,45.262,0,30.01,15.223,45.233,45.233,45.233s45.262-15.223,45.262-45.233S129.983,54.64,99.958,54.64Z" fill="#019df4"/>
    <path id="Path_386" data-name="Path 386" d="M252.632,287.82a2.66,2.66,0,0,1-2.088-1l-13.657-17.165a2.662,2.662,0,1,1,4.161-3.32L252.56,280.8l27.792-37.2a2.662,2.662,0,0,1,4.262,3.19l-29.836,39.956a2.644,2.644,0,0,1-2.088,1.073Z" transform="translate(-160.068 -165.475)" fill="#019df4"/>
  </g>
</svg>
